<?xml version="1.0" standalone="no"?>
<!DOCTYPE svg PUBLIC "-//W3C//DTD SVG 20010904//EN"
 "http://www.w3.org/TR/2001/REC-SVG-20010904/DTD/svg10.dtd">
<svg version="1.0" xmlns="http://www.w3.org/2000/svg"
 width="255.000000pt" height="255.000000pt" viewBox="0 0 255.000000 255.000000"
 preserveAspectRatio="xMidYMid meet">
<metadata>
Created by potrace 1.14, written by Peter Selinger 2001-2017
</metadata>
<g transform="translate(0.000000,255.000000) scale(0.100000,-0.100000)"
fill="#000000" stroke="none">
<path d="M1621 2508 c-139 -24 -248 -172 -310 -419 -40 -157 -52 -277 -54
-518 l-2 -206 -38 -74 c-59 -115 -141 -213 -249 -297 -65 -51 -171 -104 -207
-104 l-24 0 6 203 6 202 41 95 c121 277 208 636 180 741 -15 55 -53 89 -99 89
-77 0 -134 -72 -181 -228 l-22 -73 -54 59 c-186 206 -462 90 -558 -233 -46
-153 -61 -304 -46 -445 24 -229 92 -374 204 -432 85 -45 200 -18 295 67 l38
35 6 -233 c7 -257 24 -367 78 -508 103 -267 308 -247 404 40 68 207 39 415
-74 525 l-40 40 67 44 c83 56 214 186 270 271 23 35 44 57 46 50 37 -125 101
-261 147 -310 29 -31 78 -40 96 -16 6 6 13 73 16 147 14 293 86 569 195 741
36 56 85 99 114 99 51 0 49 -166 -7 -425 -20 -93 -45 -210 -55 -260 -28 -133
-43 -272 -36 -340 17 -170 92 -266 203 -264 128 2 253 123 373 359 85 168 120
255 165 414 39 137 38 160 -11 172 -38 10 -57 -17 -83 -116 -61 -226 -189
-479 -304 -598 -108 -111 -147 -105 -147 25 0 55 25 294 40 383 13 77 38 297
46 405 12 168 -23 293 -95 342 -43 29 -116 31 -170 3 -121 -61 -244 -325 -295
-635 -9 -55 -20 -116 -23 -135 l-6 -35 -8 35 c-16 66 -28 305 -21 409 l7 105
60 35 c125 72 269 247 328 399 45 118 42 241 -10 302 -47 57 -123 82 -202 68z
m97 -170 c35 -35 -1 -187 -73 -303 -41 -66 -170 -203 -181 -193 -6 7 22 144
48 233 26 91 77 201 112 243 29 34 71 43 94 20z m-873 -436 c-19 -95 -63 -235
-64 -205 -2 36 37 244 56 303 l18 55 3 -38 c2 -20 -4 -72 -13 -115z m-345 21
c77 -54 129 -184 111 -280 -5 -26 -19 -136 -31 -243 -24 -217 -24 -218 -123
-326 -94 -103 -156 -119 -208 -54 -48 60 -62 141 -56 325 4 127 10 180 30 256
35 134 81 240 129 293 35 41 44 46 82 46 23 0 52 -8 66 -17z m347 -1176 c60
-32 100 -103 110 -197 13 -126 -79 -385 -126 -355 -28 17 -63 230 -77 467 l-7
117 34 -8 c19 -4 48 -15 66 -24z"/>
</g>
</svg>
